<svg viewBox="0 0 367 61" xmlns="http://www.w3.org/2000/svg" fill-rule="evenodd" clip-rule="evenodd" stroke-linecap="round" stroke-linejoin="round" stroke-miterlimit="1.5"><path fill="none" d="M.493.977H367V61H.493z"/><clipPath id="a"><path d="M.493.977H367V61H.493z"/></clipPath><g clip-path="url(#a)"><path d="M367 31c0-16.557-12.727-30-28.402-30L115 .977c12.388 12.458 12.744 46.859-.5 60.023h224.098C354.273 61 367 47.557 367 31z" fill="url(#_Linear2)"/><path d="M367 31c0-16.557-12.727-30-28.402-30L115 .977c12.388 12.458 12.744 46.859-.5 60.023h224.098C354.273 61 367 47.557 367 31z" fill="url(#_Linear3)" class="tohide"/><path d="M111 1l4.5-.023C134.099 20.977 134.021 41 115 61h-5c15.488-20 16.447-40 1-60z" fill="url(#_Linear4)"/><path d="M105.828 7.8a29.65 29.65 0 00-17.969-6.067H30.126A29.635 29.635 0 0012.161 7.8c-15.558 11.859-15.558 35.274 0 47.134A29.634 29.634 0 0030.126 61h57.733a29.65 29.65 0 0017.969-6.066c15.553-11.86 15.553-35.275 0-47.134z"/><text x="160.634" y="41" font-family="'ArialMT','Arial',sans-serif" font-size="34">@naklar<tspan x="285.876px 295.322px" y="41px 41px">.i</tspan>o</text><g fill-rule="nonzero"><path d="M41.358 47.585l.148.426a6.688 6.688 0 01-.148-.426zm6.005-9.706c.268-2.304 1.175-3.59 2.878-4.914 2.443-1.786 5.487-.777 5.487-.777v-6.005a12.59 12.59 0 012.212.138v7.727s-3.045-1.009-5.488.777c-1.702 1.323-2.609 2.61-2.877 4.914-.01 1.249.212 2.887 1.249 4.293a10.558 10.558 0 01-.787-.472c-2.267-1.591-2.683-3.988-2.674-5.681zm23.17-22.8c-1.675-1.916-2.313-3.859-2.544-5.219h2.109s-.416 3.572 2.647 7.079l.046.046a11.731 11.731 0 01-2.258-1.906zm10.17 5.441v7.569s-2.693-.111-4.692-.639c-2.785-.74-4.571-1.878-4.571-1.878s-1.24-.814-1.332-.87V40.34c0 .87-.232 3.045-.926 4.858-.907 2.369-2.313 3.933-2.572 4.247 0 0-1.712 2.11-4.719 3.526-2.712 1.277-5.099 1.249-5.811 1.277 0 0-4.118.166-7.829-2.341a15.545 15.545 0 01-2.239-1.879l.019.019c3.71 2.517 7.828 2.341 7.828 2.341.712-.028 3.1 0 5.811-1.277 3.007-1.416 4.719-3.526 4.719-3.526.259-.314 1.666-1.878 2.572-4.247.694-1.813.926-3.988.926-4.858V22.852c.102.055 1.332.869 1.332.869s1.786 1.138 4.571 1.879c1.999.527 4.692.638 4.692.638v-5.931c.925.213 1.712.268 2.221.213z" fill="#ee1d52"/><path d="M78.482 20.298v5.931s-2.693-.111-4.692-.639c-2.785-.74-4.571-1.878-4.571-1.878s-1.24-.814-1.332-.87V38.48c0 .87-.232 3.045-.926 4.858-.906 2.369-2.313 3.933-2.572 4.247 0 0-1.712 2.11-4.719 3.526-2.711 1.277-5.099 1.249-5.811 1.277 0 0-4.118.167-7.828-2.341l-.019-.019a15.483 15.483 0 01-1.101-1.249c-1.184-1.508-1.906-3.285-2.091-3.794v-.009c-.296-.879-.907-3.007-.824-5.052.148-3.618 1.37-5.848 1.693-6.403a15.112 15.112 0 013.285-4.016 13.798 13.798 0 013.905-2.314 13.056 13.056 0 014.849-1.018v6.006s-3.044-1.009-5.487.777c-1.703 1.323-2.61 2.609-2.878 4.914-.009 1.693.407 4.09 2.683 5.69.269.176.528.333.787.472a6.218 6.218 0 001.434 1.397c2.23 1.472 4.09 1.574 6.478.62 1.591-.638 2.785-2.072 3.34-3.673.352-.999.342-1.999.342-3.035V9.86h5.552c.232 1.36.861 3.303 2.545 5.219a12.3 12.3 0 002.258 1.906c.24.268 1.49 1.564 3.1 2.369.823.416 1.702.731 2.6.944z" fill="#fff"/><g fill="#69c9d0"><path d="M40.608 43.153l.139.398a4.613 4.613 0 01-.139-.398z"/><path d="M50.879 27.201a13.635 13.635 0 00-3.905 2.313 14.98 14.98 0 00-3.285 4.025c-.323.555-1.545 2.776-1.693 6.403-.083 2.055.537 4.174.824 5.053v.009c.185.5.907 2.285 2.091 3.794.342.435.712.851 1.101 1.249a15.617 15.617 0 01-3.322-3.109c-1.175-1.49-1.897-3.257-2.082-3.776v-.018c-.296-.879-.916-3.007-.823-5.062.148-3.618 1.369-5.848 1.693-6.403a14.977 14.977 0 013.285-4.025 13.78 13.78 0 013.905-2.313c.888-.37 1.813-.639 2.757-.815a13.767 13.767 0 014.312-.064v1.721c-1.675.027-3.322.37-4.858 1.018z"/><path d="M67.989 9.86h-5.552v29.481c0 1.036 0 2.036-.343 3.035-.564 1.591-1.758 3.035-3.34 3.673-2.388.963-4.257.852-6.477-.62a5.989 5.989 0 01-1.435-1.388c1.897 1.009 3.591.991 5.691.149 1.592-.639 2.785-2.082 3.34-3.674.352-.999.343-1.999.343-3.035V8h7.671c-.009 0-.093.731.102 1.86zm10.493 8.8v1.638a11.826 11.826 0 01-2.6-.944c-1.601-.796-2.85-2.101-3.1-2.369.287.185.573.352.879.509 1.962.971 3.877 1.268 4.821 1.166z"/></g></g></g><defs><linearGradient id="_Linear2" x1="0" y1="0" x2="1" y2="0" gradientUnits="userSpaceOnUse" gradientTransform="matrix(245.185 17 -17 245.185 123.815 30)"><stop offset="0" stop-color="#dedede"/><stop offset=".58" stop-color="#dfdfdf"/><stop offset=".8" stop-color="#e1e1e1"/><stop offset="1" stop-color="#e2e2e2"/></linearGradient><linearGradient id="_Linear3" x1="0" y1="0" x2="1" y2="0" gradientUnits="userSpaceOnUse" gradientTransform="matrix(245.185 17 -17 245.185 123.815 30)"><stop offset="0" stop-color="#f8f9fa"/><stop offset=".58" stop-color="#f4f5f5"/><stop offset=".8" stop-color="#ebebeb"/><stop offset="1" stop-color="#e2e2e2"/></linearGradient><linearGradient id="_Linear4" x1="0" y1="0" x2="1" y2="0" gradientUnits="userSpaceOnUse" gradientTransform="matrix(24 68.2386 -257.125 90.4325 108 -2)"><stop offset="0" stop-color="#25f4ee"/><stop offset="1" stop-color="red"/></linearGradient></defs></svg>
