<?xml version="1.0" encoding="utf-8"?>
<!-- Generator: Adobe Illustrator 24.1.3, SVG Export Plug-In . SVG Version: 6.00 Build 0)  -->
<svg version="1.1" id="Ebene_1" xmlns="http://www.w3.org/2000/svg" xmlns:xlink="http://www.w3.org/1999/xlink" x="0px" y="0px"
	 viewBox="0 0 185.9 175.2" style="enable-background:new 0 0 185.9 175.2;" xml:space="preserve">
<style type="text/css">
	.st0{fill:#474747;}
	.st1{fill:#F59C35;}
	.st2{fill:#FFFFFF;}
	.st3{fill:#E0A577;}
	.st4{fill:#FEEDDE;}
	.st5{fill:#999796;}
	.st6{fill:#484747;}
</style>
<g>
	<path class="st0" d="M41.5,73.5l19.2,10.3l9.7-12l3.3,6L62.3,93c0,0-16.6-1.4-19.5-3.7C39.9,87,41.5,73.5,41.5,73.5z"/>
	<path class="st0" d="M46.8,108.2c0,0,2.4,13.7,1.7,17.8c-0.7,4.1-8.8,15.4-9.2,21.1s1.1,8.6,1.1,8.6h-5.9c0,0-6.2-13.7-3-17.8
		s4.3-8.9,3.2-12.6c-1.1-3.7-8.6-15.1-8.6-15.1L46.8,108.2z"/>
	<path class="st0" d="M33.6,109.5c0,0,2.2,5.8,0,13.3c-2.2,7.4-15.2,24.8-15.2,27.9s0,8.9,0,8.9h-5.9c0,0-3.7-15.6,0-20.1
		s8.1-10.6,7.3-15.4c-0.7-4.8-2-14-2-14L33.6,109.5z"/>
	<polygon class="st0" points="48.6,158.5 40.4,155.8 34.5,155.8 34.5,158.3 	"/>
	<polygon class="st0" points="26.1,162.3 17.9,159.6 12,159.6 12,162.2 	"/>
	<path class="st1" d="M23,73.9c0,0-4.5-0.1-10.3,2.3s-6.5,34.8-6.5,34.8l8.4,2.9l22.6-11.6l-2.9-28.4L23,73.9z"/>
	<path class="st1" d="M109.2,61.5l20.1-28.8l4.9,12.3c0,0-15,22.7-20.8,21.8C107.6,65.7,109.2,61.5,109.2,61.5z"/>
	<path class="st1" d="M168.6,42.6c0,0-4.4-4.9-9.3-7.5s-31.5-2.5-31.5-2.5s4.9,30.6,3.9,37.5c-1,6.9-3.9,19.4-3.9,19.4
		s20.8,5,28.1,4.8c7.3-0.2,10.5-2.1,10.5-2.1s-3.4-25.4-3.9-33.1S168.6,42.6,168.6,42.6z"/>
	<path class="st0" d="M127.8,89.5c0,0-3.2,20.2-2.2,26.2c1,6,11.7,22.7,12.2,31c0.5,8.3-1.5,12.7-1.5,12.7h7.8c0,0,8.3-20.2,4-26.2
		c-4.3-6-5.7-13.1-4.3-18.5c1.5-5.4,11.5-22.3,11.5-22.3L127.8,89.5z"/>
	<path class="st0" d="M145.4,91.3c0,0-2.9,8.6,0,19.5c2.9,10.9,20.2,36.5,20.2,41.1c0,4.6,0,13.1,0,13.1h7.8c0,0,4.9-22.9,0-29.6
		c-4.9-6.7-10.7-15.6-9.8-22.7s2.7-20.6,2.7-20.6L145.4,91.3z"/>
	<polygon class="st2" points="137.8,31.8 142.4,30.5 146.4,36.1 153,30.5 159.3,35.1 141.8,51.2 	"/>
	<polygon class="st0" points="125.4,69.9 120,47.3 154.4,51.2 155.4,71.8 	"/>
	<path class="st3" d="M145.3,66.3c0,0-11.5-3.7-10.5-7c1-3.3,10.5,1.8,10.5,1.8v-5.5l5.6,7.4L145.3,66.3z"/>
	<polygon class="st0" points="125.4,163.4 136.3,159.4 144.2,159.4 144.1,163.2 	"/>
	<polygon class="st0" points="155.4,169 166.3,165.1 174.1,165.1 174.1,168.8 	"/>
	<path class="st1" d="M170.6,47.3l-2-4.7l-6.5-1.8l-2.8,28.6l-8.4-6l-6.8,3.4l18.4,14.1c0,0,11.5-9.8,11.6-17.5
		S170.6,47.3,170.6,47.3z"/>
	<path class="st1" d="M108.3,69.2l-23.5,3.2l-2.4-5.1c0,0,27.9-10.1,31.4-8.4c0.2,0.1,0.4,0.2,0.6,0.3
		C119.2,62.3,115.6,68.2,108.3,69.2z"/>
	<path class="st0" d="M24.3,77.9c0,0,10.9-6.2,17.4-3.9s5.8,28.1,5.8,35.4s-6.5,8.4-15.7,7.8c-9.2-0.6-14.1-4.6-14.1-4.6
		s13.1-14.7,8.3-23S24.3,77.9,24.3,77.9z"/>
	<path class="st4" d="M43,58.2c0,0,0.9,2.8,0.9,7.3s-4.5,7.5-6.5,7.8c-1.9,0.3,0,3.2,0,3.2l-5.2,1.4c0,0-6.3-5.7-7.4-9.7
		c-1.1-4-5.4-10.3,2.6-11.4C35.4,55.6,43,58.2,43,58.2z"/>
	<path class="st5" d="M21.3,64.6c0,0,4.3,2.7,8.1,1c3.8-1.7,2.3-6.4,6.6-6.4s6.6,1.8,6.6,1.8s4.6-8.1-4.1-8
		C30,53,18.6,49.1,17.8,56.3S21.3,64.6,21.3,64.6z"/>
	<path class="st0" d="M24.3,77.9c0,0-5.2-0.5-6.6,3.1c-1.4,3.6-5.7,19.7-5.7,19.7l-0.6,12.2l6.4-0.3L23,96.7l6.9-13
		C29.8,83.7,28.7,77.1,24.3,77.9z"/>
	<path class="st1" d="M28.4,75.9c0,0,5.3,1.9,5.8,6.5s-4.4,17.8-5.8,20.1s-5.4,2.8-5.4,2.8v-3.4c0,0,0,1.9,3.1-1.9
		c3.1-3.7,4.5-12.8,4.8-16.3c0.2-3.5-6.6-5.9-6.6-5.9L28.4,75.9z"/>
	<path class="st1" d="M39.1,74c0,0,5.4-0.2,7.9,3.6c2.5,3.8,4.4,16.6,4.2,19s-3.4,4.1-3.4,4.1l-1.5-2.9c0,0,0.9,1.6,1.8-2.6
		c0.9-4.2-2-12.4-3.4-15.4c-1.4-3.1-8.3-2.8-8.3-2.8L39.1,74z"/>
	<path class="st4" d="M67,75.9l5.1,3.9c0,0,8.3-4.2,7.5-7.4C79,69.1,75.9,70,75.9,70l-5.5-0.1L67,75.9z"/>
	<path class="st4" d="M11.8,111.1c0,0-3.5,8.5,0.3,11.7s4.6-6.1,4.6-6.1l2.8,3.1l-1.3-7.4L11.8,111.1z"/>
	<path class="st3" d="M84.7,72.3c0,0-6.4,4.1-9.4,3.5c-3-0.5-5-4.1-5-4.1l8.6-2.7l-3.4-1.4l6.8-0.4L84.7,72.3z"/>
	<path class="st3" d="M154.4,32.5c0,0-2.4-2.9-3.4-6.5s-1.2-11-1.2-11s-4.2-5.6-11.7-4.6c-7.6,1-8.8,6.9-8.8,6.9s3.7,8.3,5.9,9.8
		c2.2,1.5,8.3-0.2,8.3-0.2l-1.6,5.6l4.5,3.5L154.4,32.5z"/>
	<path class="st6" d="M141.8,15.2c0,0-5.3,3.7-8.9,2.9c-3.7-0.8-8.8-2.1-8.8-5.6s1.2,5.8,9.5-7.2s21.5,6.2,20.8,10.4
		S151,26.1,151,26.1l-5.4-5.9C145.6,20.1,147.6,14.3,141.8,15.2z"/>
</g>
</svg>
