<?xml version="1.0" encoding="UTF-8"?>
<!-- Generator: Adobe Illustrator 24.1.0, SVG Export Plug-In . SVG Version: 6.00 Build 0)  -->
<svg xmlns="http://www.w3.org/2000/svg" xmlns:xlink="http://www.w3.org/1999/xlink" version="1.1" id="Ebene_1" x="0px" y="0px" viewBox="0 0 594 222" style="enable-background:new 0 0 594 222;" xml:space="preserve">
<style type="text/css">
	.st0{fill:#000013;}
	.st1{fill:none;}
	.st2{fill:#04A2CC;}
</style>
<g id="Logo">
	<g>
		<path class="st0" d="M201.6,55.6h10.6l12.6,17.5l13-17.5h10.2v46.8h-10.9V72.7l-12.4,16.6l-12.2-16.6v29.6h-11L201.6,55.6    L201.6,55.6z"></path>
		<path class="st0" d="M269,55.6h10.8l17.3,46.8h-11.4l-2.4-7h-17.9l-2.4,7h-11.3L269,55.6z M268.8,85.6h11l-5.5-15.7L268.8,85.6z"></path>
		<path class="st0" d="M300.5,55.6h11.7l17.6,28.1V55.6h10.6v46.8h-10.8l-18.4-29.4v29.4h-10.7L300.5,55.6L300.5,55.6z"></path>
		<path class="st0" d="M361.3,55.6h10.8l17.3,46.8h-11.4l-2.4-7h-17.9l-2.4,7H344L361.3,55.6z M361.2,85.6h11l-5.5-15.7L361.2,85.6z    "></path>
		<path class="st0" d="M413.8,103c-3.8,0-7.2-0.6-10.3-1.9c-3-1.3-5.6-3-7.7-5.2c-2.1-2.2-3.7-4.8-4.9-7.7c-1.1-2.9-1.7-6-1.7-9.2    c0-3.4,0.6-6.5,1.8-9.5c1.2-2.9,2.9-5.5,5-7.6c2.1-2.1,4.6-3.8,7.6-5.1c3-1.2,6.2-1.9,9.8-1.9c4.5,0,8.5,0.9,11.7,2.6    c3.3,1.7,6,4,8.3,6.9L424,71c-1.1-1.8-2.6-3.1-4.3-4c-1.8-0.9-3.9-1.4-6.3-1.4c-1.8,0-3.5,0.3-5.1,1c-1.6,0.7-3,1.6-4.1,2.8    c-1.2,1.2-2.1,2.6-2.8,4.3c-0.7,1.7-1,3.4-1,5.4c0,2,0.3,3.8,1,5.4c0.6,1.6,1.5,3,2.7,4.2c1.2,1.2,2.6,2.1,4.2,2.8    c1.6,0.6,3.4,1,5.3,1c2.7,0,5-0.6,6.8-1.9s3.2-3.1,4-5.4h-13V74.7h25.1V80c0,3.1-0.5,6-1.6,8.8c-1.1,2.8-2.6,5.2-4.6,7.3    s-4.4,3.8-7.2,5C420.3,102.4,417.2,103,413.8,103z"></path>
		<path class="st0" d="M442.5,55.6h32.3v10.4h-21.2v7.7h21.2V84h-21.2v8h21.2v10.4h-32.3V55.6z"></path>
		<path class="st0" d="M216,119.7h10.8l17.3,46.8h-11.4l-2.4-7h-17.9l-2.4,7h-11.3L216,119.7z M215.9,149.8h11l-5.5-15.7    L215.9,149.8z"></path>
		<path class="st0" d="M247.6,119.7h11.7l17.6,28.1v-28.1h10.6v46.8h-10.8l-18.4-29.4v29.4h-10.7L247.6,119.7L247.6,119.7z"></path>
		<path class="st0" d="M295.3,119.7h16.6c3.6,0,7,0.6,9.9,1.8c3,1.2,5.6,2.8,7.7,4.9c2.1,2.1,3.8,4.6,5,7.4c1.2,2.9,1.8,5.9,1.8,9.3    c0,3.3-0.6,6.4-1.8,9.3c-1.2,2.9-2.9,5.3-5,7.4c-2.1,2.1-4.7,3.7-7.7,4.9c-3,1.2-6.2,1.8-9.7,1.8h-16.8L295.3,119.7L295.3,119.7z     M306.5,130.1v26h5.1c2,0,3.9-0.3,5.5-1c1.6-0.7,3.1-1.6,4.2-2.8c1.2-1.2,2.1-2.6,2.7-4.1c0.6-1.6,0.9-3.3,0.9-5.1    c0-1.8-0.3-3.6-0.9-5.1s-1.5-3-2.6-4.1c-1.2-1.2-2.6-2.1-4.3-2.8c-1.7-0.7-3.6-1-5.8-1H306.5z"></path>
		<path class="st0" d="M356.8,119.7h10.6l12.6,17.5l13-17.5h10.2v46.8h-10.9v-29.7L380,153.5l-12.2-16.6v29.6h-11L356.8,119.7    L356.8,119.7z"></path>
		<path class="st0" d="M433.1,167.2c-3.3,0-6.5-0.6-9.4-1.9s-5.4-3-7.6-5.1s-3.9-4.7-5.1-7.6c-1.2-2.9-1.9-6.1-1.9-9.4    s0.6-6.5,1.9-9.4c1.2-2.9,2.9-5.4,5.1-7.6c2.2-2.2,4.7-3.9,7.6-5.2s6-1.9,9.4-1.9s6.5,0.6,9.4,1.9s5.5,3,7.6,5.2    c2.2,2.2,3.9,4.7,5.1,7.6s1.9,6,1.9,9.4s-0.6,6.5-1.9,9.4s-2.9,5.5-5.1,7.6s-4.7,3.9-7.6,5.1C439.7,166.6,436.5,167.2,433.1,167.2    z M433.1,156.2c1.8,0,3.5-0.3,5.1-1c1.6-0.7,2.9-1.6,4-2.8c1.1-1.2,2-2.6,2.7-4.1s1-3.2,1-5c0-1.8-0.3-3.5-1-5.1    c-0.6-1.6-1.5-3-2.7-4.2c-1.2-1.2-2.5-2.1-4.1-2.8c-1.6-0.7-3.2-1-5-1s-3.5,0.3-5,1s-2.9,1.6-4,2.8c-1.1,1.2-2,2.6-2.6,4.2    s-1,3.3-1,5.1s0.3,3.5,0.9,5s1.5,2.9,2.6,4.1s2.5,2.1,4,2.8C429.6,155.8,431.3,156.2,433.1,156.2z"></path>
		<path class="st0" d="M463,119.7h20.1c2.8,0,5.3,0.4,7.5,1.3c2.2,0.9,4,2,5.5,3.5c1.5,1.5,2.6,3.2,3.4,5.1c0.8,1.9,1.2,4,1.2,6.3    c0,3-0.7,5.7-2,8.1c-1.4,2.4-3.2,4.3-5.5,5.7l8.7,16.9h-12.3l-6.6-14.1h-8.8v14.1H463V119.7z M474.2,129.9v12.4h8.1    c2.4,0,4.2-0.6,5.3-1.8s1.7-2.7,1.7-4.5c0-1.9-0.6-3.4-1.7-4.5c-1.1-1.1-2.9-1.6-5.3-1.6L474.2,129.9L474.2,129.9z"></path>
		<path class="st0" d="M506.9,119.7h32.3v10.4h-21.2v7.7h21.2v10.4h-21.2v8h21.2v10.4h-32.3L506.9,119.7L506.9,119.7z"></path>
	</g>
</g>
<g id="Schutzzone">
	<g>
		<rect x="21.7" y="0" class="st1" width="664.5" height="222"></rect>
	</g>
</g>
<g id="Abstände">
	<g>
		<path class="st2" d="M131.3,131.9l-4.1,5.8c-1.8,2.6-4.1,4.8-6.8,6.5c-2.6,1.6-5.5,2.7-8.5,3.3c-3.1,0.5-6.1,0.5-9.2-0.1    c-3.1-0.7-6-1.9-8.6-3.8c-2.6-1.8-4.8-4.1-6.5-6.8c-1.6-2.6-2.7-5.5-3.3-8.5c-0.5-3.1-0.5-6.1,0.2-9.2c0.7-3.1,1.9-6,3.8-8.6    l0.8-1.1l6.2,4.3l-1.1,1.6c-2.4,3.5-3.4,7.7-2.6,11.9c0.7,4.2,3.1,7.9,6.5,10.3l0.4,0.3c2.7,1.9,5.9,2.9,9.1,2.9    c0.9,0,1.9-0.1,2.8-0.2c4.2-0.7,7.9-3.1,10.3-6.6l12.5-17.9c2.4-3.5,3.4-7.7,2.6-11.9s-3.1-7.9-6.6-10.3l-0.4-0.2    c-3.5-2.4-7.7-3.4-11.9-2.6c-4.2,0.7-7.9,3.1-10.3,6.6l-1.1,1.6l8.6,6l1.1-1.6c0.8-1.2,2.1-2,3.6-2.2s2.9,0.1,4.1,0.9l0.4,0.2    c1.2,0.8,2,2.1,2.2,3.6c0.3,1.5-0.1,2.9-0.9,4.1L112,127.9c-0.8,1.2-2.1,2-3.6,2.2c-1.5,0.2-2.9-0.1-4.1-0.9L104,129    c-1.2-0.8-2-2.1-2.2-3.6c-0.3-1.5,0.1-2.9,0.9-4.1l7.2-10.2L86.4,94.8l-2.7,3.8l0,0l-4.1,5.8c-2.6,3.8-4.5,8-5.4,12.5    c-0.9,4.3-1,8.8-0.2,13.1c0.8,4.4,2.3,8.5,4.7,12.3c2.4,3.9,5.6,7.2,9.4,9.9c3.8,2.6,8,4.5,12.5,5.4c2.4,0.5,4.7,0.8,7.1,0.8    c2,0,4-0.2,6-0.5c4.4-0.8,8.5-2.4,12.3-4.7c3.9-2.4,7.2-5.6,9.9-9.4l4.1-5.8L131.3,131.9z"></path>
		<g>
			<g>
				<g>
					<path class="st2" d="M146.8,128.1l-8.6-6l0.8-1.1c1.8-2.6,3.1-5.5,3.8-8.6c0.6-3,0.7-6.1,0.1-9.2c-0.5-3.1-1.6-5.9-3.3-8.5       c-1.7-2.7-3.9-5-6.5-6.8c-2.6-1.8-5.5-3.1-8.6-3.8c-3-0.6-6.1-0.7-9.2-0.2c-3.1,0.5-5.9,1.6-8.5,3.3c-2.7,1.7-5,3.9-6.8,6.5       l-0.8,1.1l-8.6-6l0.8-1.1c2.7-3.8,6-6.9,9.9-9.4c3.8-2.3,7.9-3.9,12.3-4.7c4.4-0.8,8.8-0.7,13.1,0.2c4.5,1,8.7,2.8,12.5,5.4       c3.8,2.6,6.9,6,9.4,9.9c2.4,3.8,3.9,7.9,4.7,12.3c0.8,4.4,0.7,8.8-0.2,13.1c-1,4.5-2.8,8.7-5.4,12.5L146.8,128.1z"></path>
				</g>
			</g>
		</g>
		<g>
			<g>
				<g>
					<path class="st2" d="M78.1,166.4c-11.5-8.1-19.2-20.2-21.7-34.2s0.6-28,8.7-39.5l8.6,6c-6.5,9.2-8.9,20.5-7,31.7       c2,11.2,8.2,20.9,17.4,27.4L78.1,166.4z"></path>
				</g>
			</g>
		</g>
		<g>
			<g>
				<g>
					<path class="st2" d="M155.1,148.6l-8.6-6l6.9-9.9c1.6-2.4,3.1-4.9,4.2-7.5c1.1-2.5,1.9-5.2,2.5-7.9c0.6-2.7,0.9-5.4,0.9-8.2       c0-2.7-0.2-5.5-0.6-8.1s-1.2-5.3-2.2-7.9c-1-2.6-2.2-5-3.6-7.3c-1.5-2.4-3.2-4.6-5.1-6.6c-1.9-2.1-4.1-3.9-6.5-5.6l6-8.6       c2.9,2.1,5.6,4.4,8.1,7c2.4,2.5,4.5,5.3,6.4,8.2c1.8,2.9,3.3,6,4.6,9.2c1.2,3.2,2.1,6.5,2.7,9.8c0.6,3.3,0.9,6.7,0.8,10.1       c-0.1,3.4-0.4,6.8-1.1,10.2c-0.7,3.4-1.8,6.7-3.2,9.9c-1.4,3.3-3.2,6.4-5.2,9.3L155.1,148.6z"></path>
				</g>
			</g>
		</g>
		<g>
			<g>
				<g>
					<path class="st2" d="M83.9,84l-8.6-6c2.1-2.9,4.4-5.7,7-8.1c2.5-2.4,5.3-4.5,8.2-6.4c2.9-1.8,6-3.3,9.2-4.5       c3.2-1.2,6.4-2.1,9.8-2.7c3.3-0.6,6.7-0.9,10.1-0.8c3.4,0,6.8,0.4,10.2,1.2l-2.2,10.2c-2.7-0.6-5.4-0.9-8.2-0.9       c-2.7,0-5.5,0.2-8.1,0.7c-2.7,0.5-5.3,1.2-7.9,2.2c-2.6,1-5,2.2-7.3,3.7c-2.4,1.5-4.6,3.2-6.6,5.1C87.5,79.5,85.6,81.7,83.9,84       z"></path>
				</g>
			</g>
		</g>
		<g>
			<g>
				<g>
					<path class="st2" d="M142.5,125"></path>
				</g>
			</g>
		</g>
	</g>
</g>
</svg>
